# xmcd
#
# Track frame offsets: 
#        150
#        16762
#        30426
#        43261
#        64346
#        79914
#        96663
#        113827
#        136813
#        151014
#        161233
#
# Disc length: 2447 seconds
#
# Revision: 0
# Processed by: cddbd v1.5.2PL0 Copyright (c) Steve Scherf et al.
# Submitted via: ExactAudioCopy v0.99pb5
#
DISCID=8a098d0b
DTITLE=Krach - Krach
DYEAR=2010
DGENRE=AlternRock
TTITLE0=And so I do a little Dance
TTITLE1=Do the Wave now
TTITLE2=Pointing
TTITLE3=Cause I like it here
TTITLE4=Although it hurts
TTITLE5=Medicine Man
TTITLE6=Hunger
TTITLE7=Almost cut my Beard
TTITLE8=Musictool
TTITLE9=Transformer
TTITLE10=Movement
EXTD=
EXTT0=
EXTT1=
EXTT2=
EXTT3=
EXTT4=
EXTT5=
EXTT6=
EXTT7=
EXTT8=
EXTT9=
EXTT10=
PLAYORDER=
